<?xml version="1.0" encoding="UTF-8"?>
<svg width="596px" height="478px" viewBox="0 0 596 478" version="1.1" xmlns="http://www.w3.org/2000/svg" xmlns:xlink="http://www.w3.org/1999/xlink">
    <!-- Generator: Sketch 43.2 (39069) - http://www.bohemiancoding.com/sketch -->
    <title>Slice 1</title>
    <desc>Created with Sketch.</desc>
    <defs></defs>
    <g id="Page-1" stroke="none" stroke-width="1" fill="none" fill-rule="evenodd">
        <g id="logo" transform="translate(1.000000, 0.000000)">
            <path d="M97.574301,0 L65.6093553,0 C34.2055126,0 7.56991108,23.9067624 7.56991108,70.3183403 C7.56991108,98.1617659 20.46912,118.693385 43.4576674,128.819278 L0.561594176,206.448961 C-0.840834576,208.982751 0.561594176,210.946218 2.8011789,210.946218 L22.7086676,210.946218 C24.3919305,210.946218 25.5139514,210.385161 26.0751471,208.982751 L65.0482985,132.755478 L79.0696209,132.755478 L79.0696209,208.982751 C79.0696209,209.824105 79.9109744,210.946218 81.0284549,210.946218 L98.4156545,210.946218 C100.098825,210.946218 100.659881,210.104865 100.659881,208.701991 L100.659881,2.81390576 C100.659881,0.841260812 99.537768,0 97.574301,0 Z M79.0696209,114.757185 L67.2925255,114.757185 C48.7873822,114.757185 30.8438515,101.255686 30.8438515,67.5042538 C30.8438515,32.3399874 47.6652687,17.9975515 64.7675385,17.9975515 L79.0696209,17.9975515 L79.0696209,114.757185 Z" id="path40" fill="#313131" fill-rule="nonzero"></path>
            <path d="M268.303267,107.336503 C266.335167,141.089325 260.733866,168.651991 246.432247,193.120273 L287.084074,193.120273 L287.084074,87.6462374 L269.140451,87.6462374 C269.140451,92.4247174 268.859691,100.025623 268.303267,107.336503 Z" id="path42"></path>
            <path d="M373.726803,83.9907975 C363.913175,83.9907975 358.02231,96.0801573 355.50242,119.987383 C354.941363,124.493906 354.941363,128.710402 354.941363,128.710402 C354.941363,128.710402 365.035288,127.588289 371.482576,127.588289 L389.987256,127.588289 C389.987256,127.588289 389.987256,122.521173 389.711592,118.023453 C388.308719,96.3609174 382.703248,83.9907975 373.726803,83.9907975 Z" id="path44"></path>
            <path d="M202.970502,69.9291679 L185.587936,69.9291679 C184.180892,69.9291679 183.343709,71.0512814 183.343709,71.8926349 L183.343709,125.615556 L151.093833,125.615556 L151.093833,71.8926349 C151.093833,70.4902247 150.536946,69.9291679 149.134536,69.9291679 L131.747336,69.9291679 C130.349096,69.9291679 129.507742,70.7709847 129.507742,71.8926349 L129.507742,208.593579 C129.507742,209.995989 130.068799,210.837806 131.466576,210.837806 L149.134536,210.837806 C150.256649,210.837806 151.093833,209.995989 151.093833,208.593579 L151.093833,143.342355 L183.343709,143.342355 L183.343709,208.593579 C183.343709,209.995989 184.180892,210.837806 185.587936,210.837806 L202.970502,210.837806 C204.373376,210.837806 204.929799,209.715692 204.929799,208.593579 L204.929799,71.8926349 C204.929799,70.7709847 204.092616,69.9291679 202.970502,69.9291679 Z" id="path46" fill="#313131" fill-rule="nonzero"></path>
            <path d="M599.899851,201.843292 L597.652844,192.278456 C597.379497,191.437103 597.096884,191.156343 596.253677,191.156343 C594.85451,191.156343 587.284182,194.241923 576.350293,194.241923 C555.038476,194.241923 544.665181,173.71957 544.665181,141.089325 C544.665181,112.394817 553.356696,83.9907975 567.932126,83.9907975 C571.860913,83.9907975 576.628274,85.1133743 584.198602,92.1532234 C585.041808,92.9941136 585.602402,93.2753369 586.436342,93.2753369 C587.284182,93.2753369 588.127389,92.7045508 588.965962,91.3026039 L596.53629,78.932484 C597.096884,78.0823279 597.379497,77.2317084 597.379497,76.3898916 C597.379497,75.2682414 596.253677,74.4264246 594.571897,73.5850712 C583.077415,67.6761382 575.224473,66.5540248 568.492719,66.5540248 C542.140194,66.5540248 521.671584,98.0528903 521.671584,147.269289 C521.671584,189.744667 541.296987,214.212949 569.335926,214.212949 C581.117654,214.212949 593.733323,208.593579 598.778664,204.928873 C599.899851,204.087056 600.177831,202.965406 599.899851,201.843292 Z" id="path48" fill="#313131" fill-rule="nonzero"></path>
            <path d="M478.033322,133.488419 L511.682828,71.8926349 C512.243421,71.0512814 511.960808,69.9291679 510.839621,69.9291679 L494.299798,69.9291679 C489.527804,69.9291679 487.846024,71.6123382 486.168876,75.2682414 L460.925956,127.868586 C459.527715,130.963432 458.125305,132.926899 456.722431,133.777982 L456.722431,71.8926349 C456.722431,70.7709847 456.161375,69.9291679 455.039724,69.9291679 L436.815341,69.9291679 C435.978157,69.9291679 435.136804,70.7709847 435.136804,71.8926349 L435.136804,208.874339 C435.136804,209.715692 435.697397,210.837806 436.815341,210.837806 L455.039724,210.837806 C456.161375,210.837806 456.722431,209.995989 456.722431,208.874339 L456.722431,138.274775 C457.564248,138.836295 458.125305,139.677649 458.690531,140.808565 L490.653624,206.620846 C492.335404,209.995989 494.860391,210.837806 498.506565,210.837806 L516.445555,210.837806 C517.571375,210.837806 517.849356,209.715692 517.293395,208.874339 L478.033322,133.488419 Z" id="path50" fill="#313131" fill-rule="nonzero"></path>
            <path d="M317.370483,193.120273 L314.004142,193.120273 C309.796448,193.120273 308.678968,191.437103 308.678968,188.06196 L308.678968,71.8926349 C308.678968,70.4902247 308.117911,69.9291679 306.995798,69.9291679 L250.916068,69.9291679 C249.517827,69.9291679 248.671841,70.7709847 248.671841,71.8926349 L248.671841,82.0185278 C248.671841,116.051183 246.712543,159.928971 228.76892,193.120273 L222.597759,193.120273 C220.914589,193.120273 220.353532,193.970893 220.353532,195.373303 L220.353532,236.437004 C220.353532,237.848681 221.475646,238.400471 222.316999,238.400471 L235.777265,238.400471 C238.858212,238.400471 239.980326,236.156244 239.980326,234.183511 L239.980326,210.837806 L299.987916,210.837806 L299.987916,236.437004 C299.987916,237.559118 300.824637,238.400471 301.94675,238.400471 L316.248369,238.400471 C317.926907,238.400471 319.610077,236.998061 319.610077,234.183511 L319.610077,195.373303 C319.610077,193.970893 318.768723,193.120273 317.370483,193.120273 Z M287.084074,193.120273 L246.432247,193.120273 C260.733866,168.651991 266.335167,141.089325 268.303267,107.336503 C268.859691,100.025623 269.140451,92.4247174 269.140451,87.6462374 L287.084074,87.6462374 L287.084074,193.120273 Z" id="path52" fill="#313131" fill-rule="nonzero"></path>
            <path d="M374.568157,66.5540248 C344.291014,66.5540248 330.830748,104.80364 330.830748,146.427472 C330.830748,188.903313 349.896485,214.212949 377.934497,214.212949 C391.670426,214.212949 403.732452,208.874339 409.899443,204.928873 C411.021556,204.367816 411.29722,203.526463 411.021556,202.404349 L408.777329,192.839513 C408.497033,191.7174 407.935976,191.156343 406.533102,191.156343 C405.415622,191.156343 397.280994,194.241923 385.784195,194.241923 C364.193935,194.241923 354.099546,175.402277 354.099546,150.653698 L354.099546,143.993755 C354.099546,143.993755 365.035288,145.305822 371.482576,145.305822 L412.423966,145.305822 L412.423966,133.488419 C412.423966,89.9001937 396.995601,66.5540248 374.568157,66.5540248 Z M371.482576,127.588289 C365.035288,127.588289 354.941363,128.710402 354.941363,128.710402 C354.941363,128.710402 354.941363,124.493906 355.50242,119.987383 C358.02231,96.0801573 363.913175,83.9907975 373.726803,83.9907975 C382.703248,83.9907975 388.308719,96.3609174 389.711592,118.023453 C389.987256,122.521173 389.987256,127.588289 389.987256,127.588289 L371.482576,127.588289 Z" id="path54" fill="#313131" fill-rule="nonzero"></path>
        </g>
        <g id="logo" transform="translate(1.000000, 239.000000)">
            <path d="M97.574301,0 L65.6093553,0 C34.2055126,0 7.56991108,23.9067624 7.56991108,70.3183403 C7.56991108,98.1617659 20.46912,118.693385 43.4576674,128.819278 L0.561594176,206.448961 C-0.840834576,208.982751 0.561594176,210.946218 2.8011789,210.946218 L22.7086676,210.946218 C24.3919305,210.946218 25.5139514,210.385161 26.0751471,208.982751 L65.0482985,132.755478 L79.0696209,132.755478 L79.0696209,208.982751 C79.0696209,209.824105 79.9109744,210.946218 81.0284549,210.946218 L98.4156545,210.946218 C100.098825,210.946218 100.659881,210.104865 100.659881,208.701991 L100.659881,2.81390576 C100.659881,0.841260812 99.537768,0 97.574301,0 Z M79.0696209,114.757185 L67.2925255,114.757185 C48.7873822,114.757185 30.8438515,101.255686 30.8438515,67.5042538 C30.8438515,32.3399874 47.6652687,17.9975515 64.7675385,17.9975515 L79.0696209,17.9975515 L79.0696209,114.757185 Z" id="path40" fill="#E61400" fill-rule="nonzero"></path>
            <path d="M268.303267,107.336503 C266.335167,141.089325 260.733866,168.651991 246.432247,193.120273 L287.084074,193.120273 L287.084074,87.6462374 L269.140451,87.6462374 C269.140451,92.4247174 268.859691,100.025623 268.303267,107.336503 Z" id="path42"></path>
            <path d="M373.726803,83.9907975 C363.913175,83.9907975 358.02231,96.0801573 355.50242,119.987383 C354.941363,124.493906 354.941363,128.710402 354.941363,128.710402 C354.941363,128.710402 365.035288,127.588289 371.482576,127.588289 L389.987256,127.588289 C389.987256,127.588289 389.987256,122.521173 389.711592,118.023453 C388.308719,96.3609174 382.703248,83.9907975 373.726803,83.9907975 Z" id="path44"></path>
            <path d="M202.970502,69.9291679 L185.587936,69.9291679 C184.180892,69.9291679 183.343709,71.0512814 183.343709,71.8926349 L183.343709,125.615556 L151.093833,125.615556 L151.093833,71.8926349 C151.093833,70.4902247 150.536946,69.9291679 149.134536,69.9291679 L131.747336,69.9291679 C130.349096,69.9291679 129.507742,70.7709847 129.507742,71.8926349 L129.507742,208.593579 C129.507742,209.995989 130.068799,210.837806 131.466576,210.837806 L149.134536,210.837806 C150.256649,210.837806 151.093833,209.995989 151.093833,208.593579 L151.093833,143.342355 L183.343709,143.342355 L183.343709,208.593579 C183.343709,209.995989 184.180892,210.837806 185.587936,210.837806 L202.970502,210.837806 C204.373376,210.837806 204.929799,209.715692 204.929799,208.593579 L204.929799,71.8926349 C204.929799,70.7709847 204.092616,69.9291679 202.970502,69.9291679 Z" id="path46" fill="#313131" fill-rule="nonzero"></path>
            <path d="M599.899851,201.843292 L597.652844,192.278456 C597.379497,191.437103 597.096884,191.156343 596.253677,191.156343 C594.85451,191.156343 587.284182,194.241923 576.350293,194.241923 C555.038476,194.241923 544.665181,173.71957 544.665181,141.089325 C544.665181,112.394817 553.356696,83.9907975 567.932126,83.9907975 C571.860913,83.9907975 576.628274,85.1133743 584.198602,92.1532234 C585.041808,92.9941136 585.602402,93.2753369 586.436342,93.2753369 C587.284182,93.2753369 588.127389,92.7045508 588.965962,91.3026039 L596.53629,78.932484 C597.096884,78.0823279 597.379497,77.2317084 597.379497,76.3898916 C597.379497,75.2682414 596.253677,74.4264246 594.571897,73.5850712 C583.077415,67.6761382 575.224473,66.5540248 568.492719,66.5540248 C542.140194,66.5540248 521.671584,98.0528903 521.671584,147.269289 C521.671584,189.744667 541.296987,214.212949 569.335926,214.212949 C581.117654,214.212949 593.733323,208.593579 598.778664,204.928873 C599.899851,204.087056 600.177831,202.965406 599.899851,201.843292 Z" id="path48" fill="#313131" fill-rule="nonzero"></path>
            <path d="M478.033322,133.488419 L511.682828,71.8926349 C512.243421,71.0512814 511.960808,69.9291679 510.839621,69.9291679 L494.299798,69.9291679 C489.527804,69.9291679 487.846024,71.6123382 486.168876,75.2682414 L460.925956,127.868586 C459.527715,130.963432 458.125305,132.926899 456.722431,133.777982 L456.722431,71.8926349 C456.722431,70.7709847 456.161375,69.9291679 455.039724,69.9291679 L436.815341,69.9291679 C435.978157,69.9291679 435.136804,70.7709847 435.136804,71.8926349 L435.136804,208.874339 C435.136804,209.715692 435.697397,210.837806 436.815341,210.837806 L455.039724,210.837806 C456.161375,210.837806 456.722431,209.995989 456.722431,208.874339 L456.722431,138.274775 C457.564248,138.836295 458.125305,139.677649 458.690531,140.808565 L490.653624,206.620846 C492.335404,209.995989 494.860391,210.837806 498.506565,210.837806 L516.445555,210.837806 C517.571375,210.837806 517.849356,209.715692 517.293395,208.874339 L478.033322,133.488419 Z" id="path50" fill="#313131" fill-rule="nonzero"></path>
            <path d="M317.370483,193.120273 L314.004142,193.120273 C309.796448,193.120273 308.678968,191.437103 308.678968,188.06196 L308.678968,71.8926349 C308.678968,70.4902247 308.117911,69.9291679 306.995798,69.9291679 L250.916068,69.9291679 C249.517827,69.9291679 248.671841,70.7709847 248.671841,71.8926349 L248.671841,82.0185278 C248.671841,116.051183 246.712543,159.928971 228.76892,193.120273 L222.597759,193.120273 C220.914589,193.120273 220.353532,193.970893 220.353532,195.373303 L220.353532,236.437004 C220.353532,237.848681 221.475646,238.400471 222.316999,238.400471 L235.777265,238.400471 C238.858212,238.400471 239.980326,236.156244 239.980326,234.183511 L239.980326,210.837806 L299.987916,210.837806 L299.987916,236.437004 C299.987916,237.559118 300.824637,238.400471 301.94675,238.400471 L316.248369,238.400471 C317.926907,238.400471 319.610077,236.998061 319.610077,234.183511 L319.610077,195.373303 C319.610077,193.970893 318.768723,193.120273 317.370483,193.120273 Z M287.084074,193.120273 L246.432247,193.120273 C260.733866,168.651991 266.335167,141.089325 268.303267,107.336503 C268.859691,100.025623 269.140451,92.4247174 269.140451,87.6462374 L287.084074,87.6462374 L287.084074,193.120273 Z" id="path52" fill="#313131" fill-rule="nonzero"></path>
            <path d="M374.568157,66.5540248 C344.291014,66.5540248 330.830748,104.80364 330.830748,146.427472 C330.830748,188.903313 349.896485,214.212949 377.934497,214.212949 C391.670426,214.212949 403.732452,208.874339 409.899443,204.928873 C411.021556,204.367816 411.29722,203.526463 411.021556,202.404349 L408.777329,192.839513 C408.497033,191.7174 407.935976,191.156343 406.533102,191.156343 C405.415622,191.156343 397.280994,194.241923 385.784195,194.241923 C364.193935,194.241923 354.099546,175.402277 354.099546,150.653698 L354.099546,143.993755 C354.099546,143.993755 365.035288,145.305822 371.482576,145.305822 L412.423966,145.305822 L412.423966,133.488419 C412.423966,89.9001937 396.995601,66.5540248 374.568157,66.5540248 Z M371.482576,127.588289 C365.035288,127.588289 354.941363,128.710402 354.941363,128.710402 C354.941363,128.710402 354.941363,124.493906 355.50242,119.987383 C358.02231,96.0801573 363.913175,83.9907975 373.726803,83.9907975 C382.703248,83.9907975 388.308719,96.3609174 389.711592,118.023453 C389.987256,122.521173 389.987256,127.588289 389.987256,127.588289 L371.482576,127.588289 Z" id="path54" fill="#313131" fill-rule="nonzero"></path>
        </g>
    </g>
</svg>